<?xml version="1.0" encoding="utf-8" standalone="no"?>
<!DOCTYPE svg PUBLIC "-//W3C//DTD SVG 1.1//EN"
  "http://www.w3.org/Graphics/SVG/1.1/DTD/svg11.dtd">
<svg xmlns:xlink="http://www.w3.org/1999/xlink" width="460.8pt" height="345.6pt" viewBox="0 0 460.8 345.6" xmlns="http://www.w3.org/2000/svg" version="1.1">
 <metadata>
  <rdf:RDF xmlns:dc="http://purl.org/dc/elements/1.1/" xmlns:cc="http://creativecommons.org/ns#" xmlns:rdf="http://www.w3.org/1999/02/22-rdf-syntax-ns#">
   <cc:Work>
    <dc:type rdf:resource="http://purl.org/dc/dcmitype/StillImage"/>
    <dc:date>2023-12-01T10:35:04.864282</dc:date>
    <dc:format>image/svg+xml</dc:format>
    <dc:creator>
     <cc:Agent>
      <dc:title>Matplotlib v3.8.2, https://matplotlib.org/</dc:title>
     </cc:Agent>
    </dc:creator>
   </cc:Work>
  </rdf:RDF>
 </metadata>
 <defs>
  <style type="text/css">*{stroke-linejoin: round; stroke-linecap: butt}</style>
 </defs>
 <g id="figure_1">
  <g id="patch_1">
   <path d="M 0 345.6 
L 460.8 345.6 
L 460.8 0 
L 0 0 
z
" style="fill: #ffffff"/>
  </g>
  <g id="axes_1">
   <g id="patch_2">
    <path d="M 57.6 307.584 
L 414.72 307.584 
L 414.72 41.472 
L 57.6 41.472 
z
" style="fill: #ffffff"/>
   </g>
   <g id="matplotlib.axis_1">
    <g id="xtick_1">
     <g id="line2d_1">
      <path d="M 100.887273 307.584 
L 100.887273 41.472 
" clip-path="url(#p6855d63fe4)" style="fill: none; stroke: #b0b0b0; stroke-width: 0.8; stroke-linecap: square"/>
     </g>
     <g id="line2d_2">
      <defs>
       <path id="m81c77efbfe" d="M 0 0 
L 0 3.5 
" style="stroke: #000000; stroke-width: 0.8"/>
      </defs>
      <g>
       <use xlink:href="#m81c77efbfe" x="100.887273" y="307.584" style="stroke: #000000; stroke-width: 0.8"/>
      </g>
     </g>
     <g id="text_1">
      <!-- −75 -->
      <g transform="translate(90.334929 322.182437) scale(0.1 -0.1)">
       <defs>
        <path id="DejaVuSans-2212" d="M 678 2272 
L 4684 2272 
L 4684 1741 
L 678 1741 
L 678 2272 
z
" transform="scale(0.015625)"/>
        <path id="DejaVuSans-37" d="M 525 4666 
L 3525 4666 
L 3525 4397 
L 1831 0 
L 1172 0 
L 2766 4134 
L 525 4134 
L 525 4666 
z
" transform="scale(0.015625)"/>
        <path id="DejaVuSans-35" d="M 691 4666 
L 3169 4666 
L 3169 4134 
L 1269 4134 
L 1269 2991 
Q 1406 3038 1543 3061 
Q 1681 3084 1819 3084 
Q 2600 3084 3056 2656 
Q 3513 2228 3513 1497 
Q 3513 744 3044 326 
Q 2575 -91 1722 -91 
Q 1428 -91 1123 -41 
Q 819 9 494 109 
L 494 744 
Q 775 591 1075 516 
Q 1375 441 1709 441 
Q 2250 441 2565 725 
Q 2881 1009 2881 1497 
Q 2881 1984 2565 2268 
Q 2250 2553 1709 2553 
Q 1456 2553 1204 2497 
Q 953 2441 691 2322 
L 691 4666 
z
" transform="scale(0.015625)"/>
       </defs>
       <use xlink:href="#DejaVuSans-2212"/>
       <use xlink:href="#DejaVuSans-37" x="83.789062"/>
       <use xlink:href="#DejaVuSans-35" x="147.412109"/>
      </g>
     </g>
    </g>
    <g id="xtick_2">
     <g id="line2d_3">
      <path d="M 145.978182 307.584 
L 145.978182 41.472 
" clip-path="url(#p6855d63fe4)" style="fill: none; stroke: #b0b0b0; stroke-width: 0.8; stroke-linecap: square"/>
     </g>
     <g id="line2d_4">
      <g>
       <use xlink:href="#m81c77efbfe" x="145.978182" y="307.584" style="stroke: #000000; stroke-width: 0.8"/>
      </g>
     </g>
     <g id="text_2">
      <!-- −50 -->
      <g transform="translate(135.425838 322.182437) scale(0.1 -0.1)">
       <defs>
        <path id="DejaVuSans-30" d="M 2034 4250 
Q 1547 4250 1301 3770 
Q 1056 3291 1056 2328 
Q 1056 1369 1301 889 
Q 1547 409 2034 409 
Q 2525 409 2770 889 
Q 3016 1369 3016 2328 
Q 3016 3291 2770 3770 
Q 2525 4250 2034 4250 
z
M 2034 4750 
Q 2819 4750 3233 4129 
Q 3647 3509 3647 2328 
Q 3647 1150 3233 529 
Q 2819 -91 2034 -91 
Q 1250 -91 836 529 
Q 422 1150 422 2328 
Q 422 3509 836 4129 
Q 1250 4750 2034 4750 
z
" transform="scale(0.015625)"/>
       </defs>
       <use xlink:href="#DejaVuSans-2212"/>
       <use xlink:href="#DejaVuSans-35" x="83.789062"/>
       <use xlink:href="#DejaVuSans-30" x="147.412109"/>
      </g>
     </g>
    </g>
    <g id="xtick_3">
     <g id="line2d_5">
      <path d="M 191.069091 307.584 
L 191.069091 41.472 
" clip-path="url(#p6855d63fe4)" style="fill: none; stroke: #b0b0b0; stroke-width: 0.8; stroke-linecap: square"/>
     </g>
     <g id="line2d_6">
      <g>
       <use xlink:href="#m81c77efbfe" x="191.069091" y="307.584" style="stroke: #000000; stroke-width: 0.8"/>
      </g>
     </g>
     <g id="text_3">
      <!-- −25 -->
      <g transform="translate(180.516747 322.182437) scale(0.1 -0.1)">
       <defs>
        <path id="DejaVuSans-32" d="M 1228 531 
L 3431 531 
L 3431 0 
L 469 0 
L 469 531 
Q 828 903 1448 1529 
Q 2069 2156 2228 2338 
Q 2531 2678 2651 2914 
Q 2772 3150 2772 3378 
Q 2772 3750 2511 3984 
Q 2250 4219 1831 4219 
Q 1534 4219 1204 4116 
Q 875 4013 500 3803 
L 500 4441 
Q 881 4594 1212 4672 
Q 1544 4750 1819 4750 
Q 2544 4750 2975 4387 
Q 3406 4025 3406 3419 
Q 3406 3131 3298 2873 
Q 3191 2616 2906 2266 
Q 2828 2175 2409 1742 
Q 1991 1309 1228 531 
z
" transform="scale(0.015625)"/>
       </defs>
       <use xlink:href="#DejaVuSans-2212"/>
       <use xlink:href="#DejaVuSans-32" x="83.789062"/>
       <use xlink:href="#DejaVuSans-35" x="147.412109"/>
      </g>
     </g>
    </g>
    <g id="xtick_4">
     <g id="line2d_7">
      <path d="M 236.16 307.584 
L 236.16 41.472 
" clip-path="url(#p6855d63fe4)" style="fill: none; stroke: #b0b0b0; stroke-width: 0.8; stroke-linecap: square"/>
     </g>
     <g id="line2d_8">
      <g>
       <use xlink:href="#m81c77efbfe" x="236.16" y="307.584" style="stroke: #000000; stroke-width: 0.8"/>
      </g>
     </g>
     <g id="text_4">
      <!-- 0 -->
      <g transform="translate(232.97875 322.182437) scale(0.1 -0.1)">
       <use xlink:href="#DejaVuSans-30"/>
      </g>
     </g>
    </g>
    <g id="xtick_5">
     <g id="line2d_9">
      <path d="M 281.250909 307.584 
L 281.250909 41.472 
" clip-path="url(#p6855d63fe4)" style="fill: none; stroke: #b0b0b0; stroke-width: 0.8; stroke-linecap: square"/>
     </g>
     <g id="line2d_10">
      <g>
       <use xlink:href="#m81c77efbfe" x="281.250909" y="307.584" style="stroke: #000000; stroke-width: 0.8"/>
      </g>
     </g>
     <g id="text_5">
      <!-- 25 -->
      <g transform="translate(274.888409 322.182437) scale(0.1 -0.1)">
       <use xlink:href="#DejaVuSans-32"/>
       <use xlink:href="#DejaVuSans-35" x="63.623047"/>
      </g>
     </g>
    </g>
    <g id="xtick_6">
     <g id="line2d_11">
      <path d="M 326.341818 307.584 
L 326.341818 41.472 
" clip-path="url(#p6855d63fe4)" style="fill: none; stroke: #b0b0b0; stroke-width: 0.8; stroke-linecap: square"/>
     </g>
     <g id="line2d_12">
      <g>
       <use xlink:href="#m81c77efbfe" x="326.341818" y="307.584" style="stroke: #000000; stroke-width: 0.8"/>
      </g>
     </g>
     <g id="text_6">
      <!-- 50 -->
      <g transform="translate(319.979318 322.182437) scale(0.1 -0.1)">
       <use xlink:href="#DejaVuSans-35"/>
       <use xlink:href="#DejaVuSans-30" x="63.623047"/>
      </g>
     </g>
    </g>
    <g id="xtick_7">
     <g id="line2d_13">
      <path d="M 371.432727 307.584 
L 371.432727 41.472 
" clip-path="url(#p6855d63fe4)" style="fill: none; stroke: #b0b0b0; stroke-width: 0.8; stroke-linecap: square"/>
     </g>
     <g id="line2d_14">
      <g>
       <use xlink:href="#m81c77efbfe" x="371.432727" y="307.584" style="stroke: #000000; stroke-width: 0.8"/>
      </g>
     </g>
     <g id="text_7">
      <!-- 75 -->
      <g transform="translate(365.070227 322.182437) scale(0.1 -0.1)">
       <use xlink:href="#DejaVuSans-37"/>
       <use xlink:href="#DejaVuSans-35" x="63.623047"/>
      </g>
     </g>
    </g>
    <g id="text_8">
     <!-- úhel pootočení ve stupních -->
     <g transform="translate(168.474063 336.260562) scale(0.1 -0.1)">
      <defs>
       <path id="DejaVuSans-fa" d="M 544 1381 
L 544 3500 
L 1119 3500 
L 1119 1403 
Q 1119 906 1312 657 
Q 1506 409 1894 409 
Q 2359 409 2629 706 
Q 2900 1003 2900 1516 
L 2900 3500 
L 3475 3500 
L 3475 0 
L 2900 0 
L 2900 538 
Q 2691 219 2414 64 
Q 2138 -91 1772 -91 
Q 1169 -91 856 284 
Q 544 659 544 1381 
z
M 1991 3584 
L 1991 3584 
z
M 2418 5119 
L 3040 5119 
L 2022 3944 
L 1543 3944 
L 2418 5119 
z
" transform="scale(0.015625)"/>
       <path id="DejaVuSans-68" d="M 3513 2113 
L 3513 0 
L 2938 0 
L 2938 2094 
Q 2938 2591 2744 2837 
Q 2550 3084 2163 3084 
Q 1697 3084 1428 2787 
Q 1159 2491 1159 1978 
L 1159 0 
L 581 0 
L 581 4863 
L 1159 4863 
L 1159 2956 
Q 1366 3272 1645 3428 
Q 1925 3584 2291 3584 
Q 2894 3584 3203 3211 
Q 3513 2838 3513 2113 
z
" transform="scale(0.015625)"/>
       <path id="DejaVuSans-65" d="M 3597 1894 
L 3597 1613 
L 953 1613 
Q 991 1019 1311 708 
Q 1631 397 2203 397 
Q 2534 397 2845 478 
Q 3156 559 3463 722 
L 3463 178 
Q 3153 47 2828 -22 
Q 2503 -91 2169 -91 
Q 1331 -91 842 396 
Q 353 884 353 1716 
Q 353 2575 817 3079 
Q 1281 3584 2069 3584 
Q 2775 3584 3186 3129 
Q 3597 2675 3597 1894 
z
M 3022 2063 
Q 3016 2534 2758 2815 
Q 2500 3097 2075 3097 
Q 1594 3097 1305 2825 
Q 1016 2553 972 2059 
L 3022 2063 
z
" transform="scale(0.015625)"/>
       <path id="DejaVuSans-6c" d="M 603 4863 
L 1178 4863 
L 1178 0 
L 603 0 
L 603 4863 
z
" transform="scale(0.015625)"/>
       <path id="DejaVuSans-20" transform="scale(0.015625)"/>
       <path id="DejaVuSans-70" d="M 1159 525 
L 1159 -1331 
L 581 -1331 
L 581 3500 
L 1159 3500 
L 1159 2969 
Q 1341 3281 1617 3432 
Q 1894 3584 2278 3584 
Q 2916 3584 3314 3078 
Q 3713 2572 3713 1747 
Q 3713 922 3314 415 
Q 2916 -91 2278 -91 
Q 1894 -91 1617 61 
Q 1341 213 1159 525 
z
M 3116 1747 
Q 3116 2381 2855 2742 
Q 2594 3103 2138 3103 
Q 1681 3103 1420 2742 
Q 1159 2381 1159 1747 
Q 1159 1113 1420 752 
Q 1681 391 2138 391 
Q 2594 391 2855 752 
Q 3116 1113 3116 1747 
z
" transform="scale(0.015625)"/>
       <path id="DejaVuSans-6f" d="M 1959 3097 
Q 1497 3097 1228 2736 
Q 959 2375 959 1747 
Q 959 1119 1226 758 
Q 1494 397 1959 397 
Q 2419 397 2687 759 
Q 2956 1122 2956 1747 
Q 2956 2369 2687 2733 
Q 2419 3097 1959 3097 
z
M 1959 3584 
Q 2709 3584 3137 3096 
Q 3566 2609 3566 1747 
Q 3566 888 3137 398 
Q 2709 -91 1959 -91 
Q 1206 -91 779 398 
Q 353 888 353 1747 
Q 353 2609 779 3096 
Q 1206 3584 1959 3584 
z
" transform="scale(0.015625)"/>
       <path id="DejaVuSans-74" d="M 1172 4494 
L 1172 3500 
L 2356 3500 
L 2356 3053 
L 1172 3053 
L 1172 1153 
Q 1172 725 1289 603 
Q 1406 481 1766 481 
L 2356 481 
L 2356 0 
L 1766 0 
Q 1100 0 847 248 
Q 594 497 594 1153 
L 594 3053 
L 172 3053 
L 172 3500 
L 594 3500 
L 594 4494 
L 1172 4494 
z
" transform="scale(0.015625)"/>
       <path id="DejaVuSans-10d" d="M 3122 3366 
L 3122 2828 
Q 2878 2963 2633 3030 
Q 2388 3097 2138 3097 
Q 1578 3097 1268 2742 
Q 959 2388 959 1747 
Q 959 1106 1268 751 
Q 1578 397 2138 397 
Q 2388 397 2633 464 
Q 2878 531 3122 666 
L 3122 134 
Q 2881 22 2623 -34 
Q 2366 -91 2075 -91 
Q 1284 -91 818 406 
Q 353 903 353 1747 
Q 353 2603 823 3093 
Q 1294 3584 2113 3584 
Q 2378 3584 2631 3529 
Q 2884 3475 3122 3366 
z
M 1801 3944 
L 1035 5119 
L 1470 5119 
L 2032 4353 
L 2595 5119 
L 3029 5119 
L 2263 3944 
L 1801 3944 
z
" transform="scale(0.015625)"/>
       <path id="DejaVuSans-6e" d="M 3513 2113 
L 3513 0 
L 2938 0 
L 2938 2094 
Q 2938 2591 2744 2837 
Q 2550 3084 2163 3084 
Q 1697 3084 1428 2787 
Q 1159 2491 1159 1978 
L 1159 0 
L 581 0 
L 581 3500 
L 1159 3500 
L 1159 2956 
Q 1366 3272 1645 3428 
Q 1925 3584 2291 3584 
Q 2894 3584 3203 3211 
Q 3513 2838 3513 2113 
z
" transform="scale(0.015625)"/>
       <path id="DejaVuSans-ed" d="M 1322 5119 
L 1944 5119 
L 926 3944 
L 447 3944 
L 1322 5119 
z
M 603 3500 
L 1178 3500 
L 1178 0 
L 603 0 
L 603 3500 
z
M 891 3584 
L 891 3584 
z
" transform="scale(0.015625)"/>
       <path id="DejaVuSans-76" d="M 191 3500 
L 800 3500 
L 1894 563 
L 2988 3500 
L 3597 3500 
L 2284 0 
L 1503 0 
L 191 3500 
z
" transform="scale(0.015625)"/>
       <path id="DejaVuSans-73" d="M 2834 3397 
L 2834 2853 
Q 2591 2978 2328 3040 
Q 2066 3103 1784 3103 
Q 1356 3103 1142 2972 
Q 928 2841 928 2578 
Q 928 2378 1081 2264 
Q 1234 2150 1697 2047 
L 1894 2003 
Q 2506 1872 2764 1633 
Q 3022 1394 3022 966 
Q 3022 478 2636 193 
Q 2250 -91 1575 -91 
Q 1294 -91 989 -36 
Q 684 19 347 128 
L 347 722 
Q 666 556 975 473 
Q 1284 391 1588 391 
Q 1994 391 2212 530 
Q 2431 669 2431 922 
Q 2431 1156 2273 1281 
Q 2116 1406 1581 1522 
L 1381 1569 
Q 847 1681 609 1914 
Q 372 2147 372 2553 
Q 372 3047 722 3315 
Q 1072 3584 1716 3584 
Q 2034 3584 2315 3537 
Q 2597 3491 2834 3397 
z
" transform="scale(0.015625)"/>
       <path id="DejaVuSans-75" d="M 544 1381 
L 544 3500 
L 1119 3500 
L 1119 1403 
Q 1119 906 1312 657 
Q 1506 409 1894 409 
Q 2359 409 2629 706 
Q 2900 1003 2900 1516 
L 2900 3500 
L 3475 3500 
L 3475 0 
L 2900 0 
L 2900 538 
Q 2691 219 2414 64 
Q 2138 -91 1772 -91 
Q 1169 -91 856 284 
Q 544 659 544 1381 
z
M 1991 3584 
L 1991 3584 
z
" transform="scale(0.015625)"/>
       <path id="DejaVuSans-63" d="M 3122 3366 
L 3122 2828 
Q 2878 2963 2633 3030 
Q 2388 3097 2138 3097 
Q 1578 3097 1268 2742 
Q 959 2388 959 1747 
Q 959 1106 1268 751 
Q 1578 397 2138 397 
Q 2388 397 2633 464 
Q 2878 531 3122 666 
L 3122 134 
Q 2881 22 2623 -34 
Q 2366 -91 2075 -91 
Q 1284 -91 818 406 
Q 353 903 353 1747 
Q 353 2603 823 3093 
Q 1294 3584 2113 3584 
Q 2378 3584 2631 3529 
Q 2884 3475 3122 3366 
z
" transform="scale(0.015625)"/>
      </defs>
      <use xlink:href="#DejaVuSans-fa"/>
      <use xlink:href="#DejaVuSans-68" x="63.378906"/>
      <use xlink:href="#DejaVuSans-65" x="126.757812"/>
      <use xlink:href="#DejaVuSans-6c" x="188.28125"/>
      <use xlink:href="#DejaVuSans-20" x="216.064453"/>
      <use xlink:href="#DejaVuSans-70" x="247.851562"/>
      <use xlink:href="#DejaVuSans-6f" x="311.328125"/>
      <use xlink:href="#DejaVuSans-6f" x="372.509766"/>
      <use xlink:href="#DejaVuSans-74" x="433.691406"/>
      <use xlink:href="#DejaVuSans-6f" x="472.900391"/>
      <use xlink:href="#DejaVuSans-10d" x="534.082031"/>
      <use xlink:href="#DejaVuSans-65" x="589.0625"/>
      <use xlink:href="#DejaVuSans-6e" x="650.585938"/>
      <use xlink:href="#DejaVuSans-ed" x="713.964844"/>
      <use xlink:href="#DejaVuSans-20" x="741.748047"/>
      <use xlink:href="#DejaVuSans-76" x="773.535156"/>
      <use xlink:href="#DejaVuSans-65" x="832.714844"/>
      <use xlink:href="#DejaVuSans-20" x="894.238281"/>
      <use xlink:href="#DejaVuSans-73" x="926.025391"/>
      <use xlink:href="#DejaVuSans-74" x="978.125"/>
      <use xlink:href="#DejaVuSans-75" x="1017.333984"/>
      <use xlink:href="#DejaVuSans-70" x="1080.712891"/>
      <use xlink:href="#DejaVuSans-6e" x="1144.189453"/>
      <use xlink:href="#DejaVuSans-ed" x="1207.568359"/>
      <use xlink:href="#DejaVuSans-63" x="1235.351562"/>
      <use xlink:href="#DejaVuSans-68" x="1290.332031"/>
     </g>
    </g>
   </g>
   <g id="matplotlib.axis_2">
    <g id="ytick_1">
     <g id="line2d_15">
      <path d="M 57.6 279.362345 
L 414.72 279.362345 
" clip-path="url(#p6855d63fe4)" style="fill: none; stroke: #b0b0b0; stroke-width: 0.8; stroke-linecap: square"/>
     </g>
     <g id="line2d_16">
      <defs>
       <path id="ma9f7c3dcc5" d="M 0 0 
L -3.5 0 
" style="stroke: #000000; stroke-width: 0.8"/>
      </defs>
      <g>
       <use xlink:href="#ma9f7c3dcc5" x="57.6" y="279.362345" style="stroke: #000000; stroke-width: 0.8"/>
      </g>
     </g>
     <g id="text_9">
      <!-- −0.4 -->
      <g transform="translate(26.317187 283.161563) scale(0.1 -0.1)">
       <defs>
        <path id="DejaVuSans-2e" d="M 684 794 
L 1344 794 
L 1344 0 
L 684 0 
L 684 794 
z
" transform="scale(0.015625)"/>
        <path id="DejaVuSans-34" d="M 2419 4116 
L 825 1625 
L 2419 1625 
L 2419 4116 
z
M 2253 4666 
L 3047 4666 
L 3047 1625 
L 3713 1625 
L 3713 1100 
L 3047 1100 
L 3047 0 
L 2419 0 
L 2419 1100 
L 313 1100 
L 313 1709 
L 2253 4666 
z
" transform="scale(0.015625)"/>
       </defs>
       <use xlink:href="#DejaVuSans-2212"/>
       <use xlink:href="#DejaVuSans-30" x="83.789062"/>
       <use xlink:href="#DejaVuSans-2e" x="147.412109"/>
       <use xlink:href="#DejaVuSans-34" x="179.199219"/>
      </g>
     </g>
    </g>
    <g id="ytick_2">
     <g id="line2d_17">
      <path d="M 57.6 247.10601 
L 414.72 247.10601 
" clip-path="url(#p6855d63fe4)" style="fill: none; stroke: #b0b0b0; stroke-width: 0.8; stroke-linecap: square"/>
     </g>
     <g id="line2d_18">
      <g>
       <use xlink:href="#ma9f7c3dcc5" x="57.6" y="247.10601" style="stroke: #000000; stroke-width: 0.8"/>
      </g>
     </g>
     <g id="text_10">
      <!-- −0.2 -->
      <g transform="translate(26.317187 250.905229) scale(0.1 -0.1)">
       <use xlink:href="#DejaVuSans-2212"/>
       <use xlink:href="#DejaVuSans-30" x="83.789062"/>
       <use xlink:href="#DejaVuSans-2e" x="147.412109"/>
       <use xlink:href="#DejaVuSans-32" x="179.199219"/>
      </g>
     </g>
    </g>
    <g id="ytick_3">
     <g id="line2d_19">
      <path d="M 57.6 214.849675 
L 414.72 214.849675 
" clip-path="url(#p6855d63fe4)" style="fill: none; stroke: #b0b0b0; stroke-width: 0.8; stroke-linecap: square"/>
     </g>
     <g id="line2d_20">
      <g>
       <use xlink:href="#ma9f7c3dcc5" x="57.6" y="214.849675" style="stroke: #000000; stroke-width: 0.8"/>
      </g>
     </g>
     <g id="text_11">
      <!-- 0.0 -->
      <g transform="translate(34.696875 218.648894) scale(0.1 -0.1)">
       <use xlink:href="#DejaVuSans-30"/>
       <use xlink:href="#DejaVuSans-2e" x="63.623047"/>
       <use xlink:href="#DejaVuSans-30" x="95.410156"/>
      </g>
     </g>
    </g>
    <g id="ytick_4">
     <g id="line2d_21">
      <path d="M 57.6 182.59334 
L 414.72 182.59334 
" clip-path="url(#p6855d63fe4)" style="fill: none; stroke: #b0b0b0; stroke-width: 0.8; stroke-linecap: square"/>
     </g>
     <g id="line2d_22">
      <g>
       <use xlink:href="#ma9f7c3dcc5" x="57.6" y="182.59334" style="stroke: #000000; stroke-width: 0.8"/>
      </g>
     </g>
     <g id="text_12">
      <!-- 0.2 -->
      <g transform="translate(34.696875 186.392559) scale(0.1 -0.1)">
       <use xlink:href="#DejaVuSans-30"/>
       <use xlink:href="#DejaVuSans-2e" x="63.623047"/>
       <use xlink:href="#DejaVuSans-32" x="95.410156"/>
      </g>
     </g>
    </g>
    <g id="ytick_5">
     <g id="line2d_23">
      <path d="M 57.6 150.337005 
L 414.72 150.337005 
" clip-path="url(#p6855d63fe4)" style="fill: none; stroke: #b0b0b0; stroke-width: 0.8; stroke-linecap: square"/>
     </g>
     <g id="line2d_24">
      <g>
       <use xlink:href="#ma9f7c3dcc5" x="57.6" y="150.337005" style="stroke: #000000; stroke-width: 0.8"/>
      </g>
     </g>
     <g id="text_13">
      <!-- 0.4 -->
      <g transform="translate(34.696875 154.136224) scale(0.1 -0.1)">
       <use xlink:href="#DejaVuSans-30"/>
       <use xlink:href="#DejaVuSans-2e" x="63.623047"/>
       <use xlink:href="#DejaVuSans-34" x="95.410156"/>
      </g>
     </g>
    </g>
    <g id="ytick_6">
     <g id="line2d_25">
      <path d="M 57.6 118.08067 
L 414.72 118.08067 
" clip-path="url(#p6855d63fe4)" style="fill: none; stroke: #b0b0b0; stroke-width: 0.8; stroke-linecap: square"/>
     </g>
     <g id="line2d_26">
      <g>
       <use xlink:href="#ma9f7c3dcc5" x="57.6" y="118.08067" style="stroke: #000000; stroke-width: 0.8"/>
      </g>
     </g>
     <g id="text_14">
      <!-- 0.6 -->
      <g transform="translate(34.696875 121.879889) scale(0.1 -0.1)">
       <defs>
        <path id="DejaVuSans-36" d="M 2113 2584 
Q 1688 2584 1439 2293 
Q 1191 2003 1191 1497 
Q 1191 994 1439 701 
Q 1688 409 2113 409 
Q 2538 409 2786 701 
Q 3034 994 3034 1497 
Q 3034 2003 2786 2293 
Q 2538 2584 2113 2584 
z
M 3366 4563 
L 3366 3988 
Q 3128 4100 2886 4159 
Q 2644 4219 2406 4219 
Q 1781 4219 1451 3797 
Q 1122 3375 1075 2522 
Q 1259 2794 1537 2939 
Q 1816 3084 2150 3084 
Q 2853 3084 3261 2657 
Q 3669 2231 3669 1497 
Q 3669 778 3244 343 
Q 2819 -91 2113 -91 
Q 1303 -91 875 529 
Q 447 1150 447 2328 
Q 447 3434 972 4092 
Q 1497 4750 2381 4750 
Q 2619 4750 2861 4703 
Q 3103 4656 3366 4563 
z
" transform="scale(0.015625)"/>
       </defs>
       <use xlink:href="#DejaVuSans-30"/>
       <use xlink:href="#DejaVuSans-2e" x="63.623047"/>
       <use xlink:href="#DejaVuSans-36" x="95.410156"/>
      </g>
     </g>
    </g>
    <g id="ytick_7">
     <g id="line2d_27">
      <path d="M 57.6 85.824335 
L 414.72 85.824335 
" clip-path="url(#p6855d63fe4)" style="fill: none; stroke: #b0b0b0; stroke-width: 0.8; stroke-linecap: square"/>
     </g>
     <g id="line2d_28">
      <g>
       <use xlink:href="#ma9f7c3dcc5" x="57.6" y="85.824335" style="stroke: #000000; stroke-width: 0.8"/>
      </g>
     </g>
     <g id="text_15">
      <!-- 0.8 -->
      <g transform="translate(34.696875 89.623554) scale(0.1 -0.1)">
       <defs>
        <path id="DejaVuSans-38" d="M 2034 2216 
Q 1584 2216 1326 1975 
Q 1069 1734 1069 1313 
Q 1069 891 1326 650 
Q 1584 409 2034 409 
Q 2484 409 2743 651 
Q 3003 894 3003 1313 
Q 3003 1734 2745 1975 
Q 2488 2216 2034 2216 
z
M 1403 2484 
Q 997 2584 770 2862 
Q 544 3141 544 3541 
Q 544 4100 942 4425 
Q 1341 4750 2034 4750 
Q 2731 4750 3128 4425 
Q 3525 4100 3525 3541 
Q 3525 3141 3298 2862 
Q 3072 2584 2669 2484 
Q 3125 2378 3379 2068 
Q 3634 1759 3634 1313 
Q 3634 634 3220 271 
Q 2806 -91 2034 -91 
Q 1263 -91 848 271 
Q 434 634 434 1313 
Q 434 1759 690 2068 
Q 947 2378 1403 2484 
z
M 1172 3481 
Q 1172 3119 1398 2916 
Q 1625 2713 2034 2713 
Q 2441 2713 2670 2916 
Q 2900 3119 2900 3481 
Q 2900 3844 2670 4047 
Q 2441 4250 2034 4250 
Q 1625 4250 1398 4047 
Q 1172 3844 1172 3481 
z
" transform="scale(0.015625)"/>
       </defs>
       <use xlink:href="#DejaVuSans-30"/>
       <use xlink:href="#DejaVuSans-2e" x="63.623047"/>
       <use xlink:href="#DejaVuSans-38" x="95.410156"/>
      </g>
     </g>
    </g>
    <g id="ytick_8">
     <g id="line2d_29">
      <path d="M 57.6 53.568 
L 414.72 53.568 
" clip-path="url(#p6855d63fe4)" style="fill: none; stroke: #b0b0b0; stroke-width: 0.8; stroke-linecap: square"/>
     </g>
     <g id="line2d_30">
      <g>
       <use xlink:href="#ma9f7c3dcc5" x="57.6" y="53.568" style="stroke: #000000; stroke-width: 0.8"/>
      </g>
     </g>
     <g id="text_16">
      <!-- 1.0 -->
      <g transform="translate(34.696875 57.367219) scale(0.1 -0.1)">
       <defs>
        <path id="DejaVuSans-31" d="M 794 531 
L 1825 531 
L 1825 4091 
L 703 3866 
L 703 4441 
L 1819 4666 
L 2450 4666 
L 2450 531 
L 3481 531 
L 3481 0 
L 794 0 
L 794 531 
z
" transform="scale(0.015625)"/>
       </defs>
       <use xlink:href="#DejaVuSans-31"/>
       <use xlink:href="#DejaVuSans-2e" x="63.623047"/>
       <use xlink:href="#DejaVuSans-30" x="95.410156"/>
      </g>
     </g>
    </g>
   </g>
   <g id="line2d_31">
    <path d="M 73.832727 214.849675 
L 77.095587 214.688946 
L 80.358447 214.207399 
L 83.621307 213.406955 
L 86.884166 212.290804 
L 90.147026 210.863396 
L 93.409886 209.13042 
L 96.672746 207.098784 
L 99.935605 204.776588 
L 103.198465 202.173088 
L 106.461325 199.298662 
L 109.724185 196.16477 
L 112.987044 192.783902 
L 116.249904 189.169538 
L 121.144194 183.341941 
L 126.038483 177.073845 
L 130.932773 170.421445 
L 135.827063 163.444384 
L 142.352782 153.745071 
L 150.509931 141.20192 
L 168.45566 113.439945 
L 174.98138 103.790524 
L 179.875669 96.863301 
L 184.769959 90.270896 
L 189.664249 84.072415 
L 194.558538 78.323428 
L 197.821398 74.766122 
L 201.084258 71.445773 
L 204.347117 68.375616 
L 207.609977 65.567889 
L 210.872837 63.033785 
L 214.135697 60.783405 
L 217.398556 58.825721 
L 220.661416 57.168537 
L 223.924276 55.818457 
L 227.187136 54.780865 
L 230.449995 54.059895 
L 233.712855 53.658423 
L 236.975715 53.578049 
L 240.238575 53.819092 
L 243.501434 54.380593 
L 246.764294 55.260312 
L 250.027154 56.454743 
L 253.290014 57.959125 
L 256.552873 59.767461 
L 259.815733 61.872542 
L 263.078593 64.265976 
L 266.341453 66.938224 
L 269.604312 69.878631 
L 272.867172 73.075478 
L 276.130032 76.51602 
L 281.024322 82.103509 
L 285.918611 88.158145 
L 290.812901 94.625645 
L 295.70719 101.448025 
L 302.23291 110.990461 
L 310.390059 123.4202 
L 333.230078 158.643429 
L 339.755797 168.128797 
L 344.650087 174.896199 
L 349.544376 181.298822 
L 354.438666 187.279262 
L 359.332956 192.783902 
L 362.595815 196.16477 
L 365.858675 199.298662 
L 369.121535 202.173088 
L 372.384395 204.776588 
L 375.647254 207.098784 
L 378.910114 209.13042 
L 382.172974 210.863396 
L 385.435834 212.290804 
L 388.698693 213.406955 
L 391.961553 214.207399 
L 395.224413 214.688946 
L 398.487273 214.849675 
L 398.487273 214.849675 
" clip-path="url(#p6855d63fe4)" style="fill: none; stroke: #1f77b4; stroke-width: 1.5; stroke-linecap: square"/>
   </g>
   <g id="line2d_32">
    <path d="M 73.832727 53.568 
L 77.095587 53.728729 
L 80.358447 54.210275 
L 83.621307 55.010719 
L 86.884166 56.12687 
L 90.147026 57.554279 
L 93.409886 59.287255 
L 96.672746 61.318891 
L 99.935605 63.641087 
L 103.198465 66.244587 
L 106.461325 69.119013 
L 109.724185 72.252905 
L 112.987044 75.633772 
L 116.249904 79.248137 
L 121.144194 85.075734 
L 126.038483 91.34383 
L 130.932773 97.99623 
L 135.827063 104.973291 
L 142.352782 114.672604 
L 150.509931 127.215754 
L 168.45566 154.97773 
L 174.98138 164.627151 
L 179.875669 171.554374 
L 184.769959 178.146779 
L 189.664249 184.34526 
L 194.558538 190.094247 
L 197.821398 193.651552 
L 201.084258 196.971902 
L 204.347117 200.042059 
L 207.609977 202.849786 
L 210.872837 205.38389 
L 214.135697 207.634269 
L 217.398556 209.591953 
L 220.661416 211.249138 
L 223.924276 212.599218 
L 227.187136 213.63681 
L 230.449995 214.357779 
L 233.712855 214.759252 
L 236.975715 214.839626 
L 240.238575 214.598583 
L 243.501434 214.037082 
L 246.764294 213.157363 
L 250.027154 211.962931 
L 253.290014 210.458549 
L 256.552873 208.650214 
L 259.815733 206.545133 
L 263.078593 204.151698 
L 266.341453 201.479451 
L 269.604312 198.539043 
L 272.867172 195.342197 
L 276.130032 191.901654 
L 281.024322 186.314166 
L 285.918611 180.25953 
L 290.812901 173.79203 
L 295.70719 166.969649 
L 302.23291 157.427214 
L 310.390059 144.997475 
L 333.230078 109.774246 
L 339.755797 100.288878 
L 344.650087 93.521475 
L 349.544376 87.118853 
L 354.438666 81.138413 
L 359.332956 75.633772 
L 362.595815 72.252905 
L 365.858675 69.119013 
L 369.121535 66.244587 
L 372.384395 63.641087 
L 375.647254 61.318891 
L 378.910114 59.287255 
L 382.172974 57.554279 
L 385.435834 56.12687 
L 388.698693 55.010719 
L 391.961553 54.210275 
L 395.224413 53.728729 
L 398.487273 53.568 
L 398.487273 53.568 
" clip-path="url(#p6855d63fe4)" style="fill: none; stroke: #ff7f0e; stroke-width: 1.5; stroke-linecap: square"/>
   </g>
   <g id="line2d_33">
    <path d="M 73.832727 214.849675 
L 85.252736 197.171463 
L 91.778456 187.401848 
L 98.304175 178.069457 
L 103.198465 171.446848 
L 108.092755 165.213365 
L 112.987044 159.424893 
L 116.249904 155.838946 
L 119.512764 152.488234 
L 122.775624 149.386112 
L 126.038483 146.544947 
L 129.301343 143.976065 
L 132.564203 141.689706 
L 135.827063 139.694984 
L 139.089922 137.999851 
L 142.352782 136.611064 
L 145.615642 135.534159 
L 148.878502 134.773428 
L 152.141361 134.331905 
L 155.404221 134.21135 
L 158.667081 134.412242 
L 161.929941 134.933782 
L 165.1928 135.77389 
L 168.45566 136.929217 
L 171.71852 138.395158 
L 174.98138 140.165869 
L 178.244239 142.234292 
L 181.507099 144.59218 
L 184.769959 147.230136 
L 188.032819 150.137643 
L 191.295678 153.303112 
L 194.558538 156.713923 
L 197.821398 160.35648 
L 202.715688 166.222838 
L 207.609977 172.525157 
L 212.504267 179.206933 
L 219.029986 188.602274 
L 225.555706 198.415716 
L 235.344285 213.576659 
L 248.395724 233.767733 
L 254.921444 243.491087 
L 261.447163 252.758203 
L 266.341453 259.319993 
L 271.235742 265.483087 
L 276.130032 271.19223 
L 279.392892 274.720673 
L 282.655751 278.010452 
L 285.918611 281.048454 
L 289.181471 283.822568 
L 292.444331 286.321736 
L 295.70719 288.535995 
L 298.97005 290.45652 
L 302.23291 292.075653 
L 305.49577 293.38694 
L 308.75863 294.385155 
L 312.021489 295.066319 
L 315.284349 295.427715 
L 318.547209 295.467903 
L 321.810069 295.186724 
L 325.072928 294.585297 
L 328.335788 293.666021 
L 331.598648 292.43256 
L 334.861508 290.889831 
L 338.124367 289.043983 
L 341.387227 286.902376 
L 344.650087 284.473544 
L 347.912947 281.767172 
L 351.175806 278.794047 
L 354.438666 275.566021 
L 357.701526 272.095962 
L 362.595815 266.46757 
L 367.490105 260.376402 
L 372.384395 253.877066 
L 377.278684 247.027833 
L 383.804404 237.457755 
L 391.961553 225.007171 
L 398.487273 214.849675 
L 398.487273 214.849675 
" clip-path="url(#p6855d63fe4)" style="fill: none; stroke: #2ca02c; stroke-width: 1.5; stroke-linecap: square"/>
   </g>
   <g id="patch_3">
    <path d="M 57.6 307.584 
L 57.6 41.472 
" style="fill: none; stroke: #000000; stroke-width: 0.8; stroke-linejoin: miter; stroke-linecap: square"/>
   </g>
   <g id="patch_4">
    <path d="M 414.72 307.584 
L 414.72 41.472 
" style="fill: none; stroke: #000000; stroke-width: 0.8; stroke-linejoin: miter; stroke-linecap: square"/>
   </g>
   <g id="patch_5">
    <path d="M 57.6 307.584 
L 414.72 307.584 
" style="fill: none; stroke: #000000; stroke-width: 0.8; stroke-linejoin: miter; stroke-linecap: square"/>
   </g>
   <g id="patch_6">
    <path d="M 57.6 41.472 
L 414.72 41.472 
" style="fill: none; stroke: #000000; stroke-width: 0.8; stroke-linejoin: miter; stroke-linecap: square"/>
   </g>
   <g id="text_17">
    <!-- Závislost namáhání na úhlu pootočení spoje -->
    <g transform="translate(103.575938 35.472) scale(0.12 -0.12)">
     <defs>
      <path id="DejaVuSans-5a" d="M 359 4666 
L 4025 4666 
L 4025 4184 
L 1075 531 
L 4097 531 
L 4097 0 
L 288 0 
L 288 481 
L 3238 4134 
L 359 4134 
L 359 4666 
z
" transform="scale(0.015625)"/>
      <path id="DejaVuSans-e1" d="M 2194 1759 
Q 1497 1759 1228 1600 
Q 959 1441 959 1056 
Q 959 750 1161 570 
Q 1363 391 1709 391 
Q 2188 391 2477 730 
Q 2766 1069 2766 1631 
L 2766 1759 
L 2194 1759 
z
M 3341 1997 
L 3341 0 
L 2766 0 
L 2766 531 
Q 2569 213 2275 61 
Q 1981 -91 1556 -91 
Q 1019 -91 701 211 
Q 384 513 384 1019 
Q 384 1609 779 1909 
Q 1175 2209 1959 2209 
L 2766 2209 
L 2766 2266 
Q 2766 2663 2505 2880 
Q 2244 3097 1772 3097 
Q 1472 3097 1187 3025 
Q 903 2953 641 2809 
L 641 3341 
Q 956 3463 1253 3523 
Q 1550 3584 1831 3584 
Q 2591 3584 2966 3190 
Q 3341 2797 3341 1997 
z
M 2290 5119 
L 2912 5119 
L 1894 3944 
L 1415 3944 
L 2290 5119 
z
" transform="scale(0.015625)"/>
      <path id="DejaVuSans-69" d="M 603 3500 
L 1178 3500 
L 1178 0 
L 603 0 
L 603 3500 
z
M 603 4863 
L 1178 4863 
L 1178 4134 
L 603 4134 
L 603 4863 
z
" transform="scale(0.015625)"/>
      <path id="DejaVuSans-61" d="M 2194 1759 
Q 1497 1759 1228 1600 
Q 959 1441 959 1056 
Q 959 750 1161 570 
Q 1363 391 1709 391 
Q 2188 391 2477 730 
Q 2766 1069 2766 1631 
L 2766 1759 
L 2194 1759 
z
M 3341 1997 
L 3341 0 
L 2766 0 
L 2766 531 
Q 2569 213 2275 61 
Q 1981 -91 1556 -91 
Q 1019 -91 701 211 
Q 384 513 384 1019 
Q 384 1609 779 1909 
Q 1175 2209 1959 2209 
L 2766 2209 
L 2766 2266 
Q 2766 2663 2505 2880 
Q 2244 3097 1772 3097 
Q 1472 3097 1187 3025 
Q 903 2953 641 2809 
L 641 3341 
Q 956 3463 1253 3523 
Q 1550 3584 1831 3584 
Q 2591 3584 2966 3190 
Q 3341 2797 3341 1997 
z
" transform="scale(0.015625)"/>
      <path id="DejaVuSans-6d" d="M 3328 2828 
Q 3544 3216 3844 3400 
Q 4144 3584 4550 3584 
Q 5097 3584 5394 3201 
Q 5691 2819 5691 2113 
L 5691 0 
L 5113 0 
L 5113 2094 
Q 5113 2597 4934 2840 
Q 4756 3084 4391 3084 
Q 3944 3084 3684 2787 
Q 3425 2491 3425 1978 
L 3425 0 
L 2847 0 
L 2847 2094 
Q 2847 2600 2669 2842 
Q 2491 3084 2119 3084 
Q 1678 3084 1418 2786 
Q 1159 2488 1159 1978 
L 1159 0 
L 581 0 
L 581 3500 
L 1159 3500 
L 1159 2956 
Q 1356 3278 1631 3431 
Q 1906 3584 2284 3584 
Q 2666 3584 2933 3390 
Q 3200 3197 3328 2828 
z
" transform="scale(0.015625)"/>
      <path id="DejaVuSans-6a" d="M 603 3500 
L 1178 3500 
L 1178 -63 
Q 1178 -731 923 -1031 
Q 669 -1331 103 -1331 
L -116 -1331 
L -116 -844 
L 38 -844 
Q 366 -844 484 -692 
Q 603 -541 603 -63 
L 603 3500 
z
M 603 4863 
L 1178 4863 
L 1178 4134 
L 603 4134 
L 603 4863 
z
" transform="scale(0.015625)"/>
     </defs>
     <use xlink:href="#DejaVuSans-5a"/>
     <use xlink:href="#DejaVuSans-e1" x="68.505859"/>
     <use xlink:href="#DejaVuSans-76" x="129.785156"/>
     <use xlink:href="#DejaVuSans-69" x="188.964844"/>
     <use xlink:href="#DejaVuSans-73" x="216.748047"/>
     <use xlink:href="#DejaVuSans-6c" x="268.847656"/>
     <use xlink:href="#DejaVuSans-6f" x="296.630859"/>
     <use xlink:href="#DejaVuSans-73" x="357.8125"/>
     <use xlink:href="#DejaVuSans-74" x="409.912109"/>
     <use xlink:href="#DejaVuSans-20" x="449.121094"/>
     <use xlink:href="#DejaVuSans-6e" x="480.908203"/>
     <use xlink:href="#DejaVuSans-61" x="544.287109"/>
     <use xlink:href="#DejaVuSans-6d" x="605.566406"/>
     <use xlink:href="#DejaVuSans-e1" x="702.978516"/>
     <use xlink:href="#DejaVuSans-68" x="764.257812"/>
     <use xlink:href="#DejaVuSans-e1" x="827.636719"/>
     <use xlink:href="#DejaVuSans-6e" x="888.916016"/>
     <use xlink:href="#DejaVuSans-ed" x="952.294922"/>
     <use xlink:href="#DejaVuSans-20" x="980.078125"/>
     <use xlink:href="#DejaVuSans-6e" x="1011.865234"/>
     <use xlink:href="#DejaVuSans-61" x="1075.244141"/>
     <use xlink:href="#DejaVuSans-20" x="1136.523438"/>
     <use xlink:href="#DejaVuSans-fa" x="1168.310547"/>
     <use xlink:href="#DejaVuSans-68" x="1231.689453"/>
     <use xlink:href="#DejaVuSans-6c" x="1295.068359"/>
     <use xlink:href="#DejaVuSans-75" x="1322.851562"/>
     <use xlink:href="#DejaVuSans-20" x="1386.230469"/>
     <use xlink:href="#DejaVuSans-70" x="1418.017578"/>
     <use xlink:href="#DejaVuSans-6f" x="1481.494141"/>
     <use xlink:href="#DejaVuSans-6f" x="1542.675781"/>
     <use xlink:href="#DejaVuSans-74" x="1603.857422"/>
     <use xlink:href="#DejaVuSans-6f" x="1643.066406"/>
     <use xlink:href="#DejaVuSans-10d" x="1704.248047"/>
     <use xlink:href="#DejaVuSans-65" x="1759.228516"/>
     <use xlink:href="#DejaVuSans-6e" x="1820.751953"/>
     <use xlink:href="#DejaVuSans-ed" x="1884.130859"/>
     <use xlink:href="#DejaVuSans-20" x="1911.914062"/>
     <use xlink:href="#DejaVuSans-73" x="1943.701172"/>
     <use xlink:href="#DejaVuSans-70" x="1995.800781"/>
     <use xlink:href="#DejaVuSans-6f" x="2059.277344"/>
     <use xlink:href="#DejaVuSans-6a" x="2120.458984"/>
     <use xlink:href="#DejaVuSans-65" x="2148.242188"/>
    </g>
   </g>
   <g id="legend_1">
    <g id="patch_7">
     <path d="M 64.6 302.584 
L 237.534375 302.584 
Q 239.534375 302.584 239.534375 300.584 
L 239.534375 256.349625 
Q 239.534375 254.349625 237.534375 254.349625 
L 64.6 254.349625 
Q 62.6 254.349625 62.6 256.349625 
L 62.6 300.584 
Q 62.6 302.584 64.6 302.584 
z
" style="fill: #ffffff; opacity: 0.8; stroke: #cccccc; stroke-linejoin: miter"/>
    </g>
    <g id="line2d_34">
     <path d="M 66.6 262.848062 
L 76.6 262.848062 
L 86.6 262.848062 
" style="fill: none; stroke: #1f77b4; stroke-width: 1.5; stroke-linecap: square"/>
    </g>
    <g id="text_18">
     <!-- normálový tah v první ose -->
     <g transform="translate(94.6 266.348062) scale(0.1 -0.1)">
      <defs>
       <path id="DejaVuSans-72" d="M 2631 2963 
Q 2534 3019 2420 3045 
Q 2306 3072 2169 3072 
Q 1681 3072 1420 2755 
Q 1159 2438 1159 1844 
L 1159 0 
L 581 0 
L 581 3500 
L 1159 3500 
L 1159 2956 
Q 1341 3275 1631 3429 
Q 1922 3584 2338 3584 
Q 2397 3584 2469 3576 
Q 2541 3569 2628 3553 
L 2631 2963 
z
" transform="scale(0.015625)"/>
       <path id="DejaVuSans-fd" d="M 2059 -325 
Q 1816 -950 1584 -1140 
Q 1353 -1331 966 -1331 
L 506 -1331 
L 506 -850 
L 844 -850 
Q 1081 -850 1212 -737 
Q 1344 -625 1503 -206 
L 1606 56 
L 191 3500 
L 800 3500 
L 1894 763 
L 2988 3500 
L 3597 3500 
L 2059 -325 
z
M 2330 5119 
L 2952 5119 
L 1934 3944 
L 1455 3944 
L 2330 5119 
z
" transform="scale(0.015625)"/>
      </defs>
      <use xlink:href="#DejaVuSans-6e"/>
      <use xlink:href="#DejaVuSans-6f" x="63.378906"/>
      <use xlink:href="#DejaVuSans-72" x="124.560547"/>
      <use xlink:href="#DejaVuSans-6d" x="163.923828"/>
      <use xlink:href="#DejaVuSans-e1" x="261.335938"/>
      <use xlink:href="#DejaVuSans-6c" x="322.615234"/>
      <use xlink:href="#DejaVuSans-6f" x="350.398438"/>
      <use xlink:href="#DejaVuSans-76" x="411.580078"/>
      <use xlink:href="#DejaVuSans-fd" x="470.759766"/>
      <use xlink:href="#DejaVuSans-20" x="529.939453"/>
      <use xlink:href="#DejaVuSans-74" x="561.726562"/>
      <use xlink:href="#DejaVuSans-61" x="600.935547"/>
      <use xlink:href="#DejaVuSans-68" x="662.214844"/>
      <use xlink:href="#DejaVuSans-20" x="725.59375"/>
      <use xlink:href="#DejaVuSans-76" x="757.380859"/>
      <use xlink:href="#DejaVuSans-20" x="816.560547"/>
      <use xlink:href="#DejaVuSans-70" x="848.347656"/>
      <use xlink:href="#DejaVuSans-72" x="911.824219"/>
      <use xlink:href="#DejaVuSans-76" x="952.9375"/>
      <use xlink:href="#DejaVuSans-6e" x="1012.117188"/>
      <use xlink:href="#DejaVuSans-ed" x="1075.496094"/>
      <use xlink:href="#DejaVuSans-20" x="1103.279297"/>
      <use xlink:href="#DejaVuSans-6f" x="1135.066406"/>
      <use xlink:href="#DejaVuSans-73" x="1196.248047"/>
      <use xlink:href="#DejaVuSans-65" x="1248.347656"/>
     </g>
    </g>
    <g id="line2d_35">
     <path d="M 66.6 277.926187 
L 76.6 277.926187 
L 86.6 277.926187 
" style="fill: none; stroke: #ff7f0e; stroke-width: 1.5; stroke-linecap: square"/>
    </g>
    <g id="text_19">
     <!-- normálový tah ve druhé ose -->
     <g transform="translate(94.6 281.426187) scale(0.1 -0.1)">
      <defs>
       <path id="DejaVuSans-64" d="M 2906 2969 
L 2906 4863 
L 3481 4863 
L 3481 0 
L 2906 0 
L 2906 525 
Q 2725 213 2448 61 
Q 2172 -91 1784 -91 
Q 1150 -91 751 415 
Q 353 922 353 1747 
Q 353 2572 751 3078 
Q 1150 3584 1784 3584 
Q 2172 3584 2448 3432 
Q 2725 3281 2906 2969 
z
M 947 1747 
Q 947 1113 1208 752 
Q 1469 391 1925 391 
Q 2381 391 2643 752 
Q 2906 1113 2906 1747 
Q 2906 2381 2643 2742 
Q 2381 3103 1925 3103 
Q 1469 3103 1208 2742 
Q 947 2381 947 1747 
z
" transform="scale(0.015625)"/>
       <path id="DejaVuSans-e9" d="M 3597 1894 
L 3597 1613 
L 953 1613 
Q 991 1019 1311 708 
Q 1631 397 2203 397 
Q 2534 397 2845 478 
Q 3156 559 3463 722 
L 3463 178 
Q 3153 47 2828 -22 
Q 2503 -91 2169 -91 
Q 1331 -91 842 396 
Q 353 884 353 1716 
Q 353 2575 817 3079 
Q 1281 3584 2069 3584 
Q 2775 3584 3186 3129 
Q 3597 2675 3597 1894 
z
M 3022 2063 
Q 3016 2534 2758 2815 
Q 2500 3097 2075 3097 
Q 1594 3097 1305 2825 
Q 1016 2553 972 2059 
L 3022 2063 
z
M 2466 5119 
L 3088 5119 
L 2070 3944 
L 1591 3944 
L 2466 5119 
z
" transform="scale(0.015625)"/>
      </defs>
      <use xlink:href="#DejaVuSans-6e"/>
      <use xlink:href="#DejaVuSans-6f" x="63.378906"/>
      <use xlink:href="#DejaVuSans-72" x="124.560547"/>
      <use xlink:href="#DejaVuSans-6d" x="163.923828"/>
      <use xlink:href="#DejaVuSans-e1" x="261.335938"/>
      <use xlink:href="#DejaVuSans-6c" x="322.615234"/>
      <use xlink:href="#DejaVuSans-6f" x="350.398438"/>
      <use xlink:href="#DejaVuSans-76" x="411.580078"/>
      <use xlink:href="#DejaVuSans-fd" x="470.759766"/>
      <use xlink:href="#DejaVuSans-20" x="529.939453"/>
      <use xlink:href="#DejaVuSans-74" x="561.726562"/>
      <use xlink:href="#DejaVuSans-61" x="600.935547"/>
      <use xlink:href="#DejaVuSans-68" x="662.214844"/>
      <use xlink:href="#DejaVuSans-20" x="725.59375"/>
      <use xlink:href="#DejaVuSans-76" x="757.380859"/>
      <use xlink:href="#DejaVuSans-65" x="816.560547"/>
      <use xlink:href="#DejaVuSans-20" x="878.083984"/>
      <use xlink:href="#DejaVuSans-64" x="909.871094"/>
      <use xlink:href="#DejaVuSans-72" x="973.347656"/>
      <use xlink:href="#DejaVuSans-75" x="1014.460938"/>
      <use xlink:href="#DejaVuSans-68" x="1077.839844"/>
      <use xlink:href="#DejaVuSans-e9" x="1141.21875"/>
      <use xlink:href="#DejaVuSans-20" x="1202.742188"/>
      <use xlink:href="#DejaVuSans-6f" x="1234.529297"/>
      <use xlink:href="#DejaVuSans-73" x="1295.710938"/>
      <use xlink:href="#DejaVuSans-65" x="1347.810547"/>
     </g>
    </g>
    <g id="line2d_36">
     <path d="M 66.6 293.004312 
L 76.6 293.004312 
L 86.6 293.004312 
" style="fill: none; stroke: #2ca02c; stroke-width: 1.5; stroke-linecap: square"/>
    </g>
    <g id="text_20">
     <!-- smykové namáhání -->
     <g transform="translate(94.6 296.504312) scale(0.1 -0.1)">
      <defs>
       <path id="DejaVuSans-79" d="M 2059 -325 
Q 1816 -950 1584 -1140 
Q 1353 -1331 966 -1331 
L 506 -1331 
L 506 -850 
L 844 -850 
Q 1081 -850 1212 -737 
Q 1344 -625 1503 -206 
L 1606 56 
L 191 3500 
L 800 3500 
L 1894 763 
L 2988 3500 
L 3597 3500 
L 2059 -325 
z
" transform="scale(0.015625)"/>
       <path id="DejaVuSans-6b" d="M 581 4863 
L 1159 4863 
L 1159 1991 
L 2875 3500 
L 3609 3500 
L 1753 1863 
L 3688 0 
L 2938 0 
L 1159 1709 
L 1159 0 
L 581 0 
L 581 4863 
z
" transform="scale(0.015625)"/>
      </defs>
      <use xlink:href="#DejaVuSans-73"/>
      <use xlink:href="#DejaVuSans-6d" x="52.099609"/>
      <use xlink:href="#DejaVuSans-79" x="149.511719"/>
      <use xlink:href="#DejaVuSans-6b" x="208.691406"/>
      <use xlink:href="#DejaVuSans-6f" x="262.976562"/>
      <use xlink:href="#DejaVuSans-76" x="324.158203"/>
      <use xlink:href="#DejaVuSans-e9" x="383.337891"/>
      <use xlink:href="#DejaVuSans-20" x="444.861328"/>
      <use xlink:href="#DejaVuSans-6e" x="476.648438"/>
      <use xlink:href="#DejaVuSans-61" x="540.027344"/>
      <use xlink:href="#DejaVuSans-6d" x="601.306641"/>
      <use xlink:href="#DejaVuSans-e1" x="698.71875"/>
      <use xlink:href="#DejaVuSans-68" x="759.998047"/>
      <use xlink:href="#DejaVuSans-e1" x="823.376953"/>
      <use xlink:href="#DejaVuSans-6e" x="884.65625"/>
      <use xlink:href="#DejaVuSans-ed" x="948.035156"/>
     </g>
    </g>
   </g>
  </g>
 </g>
 <defs>
  <clipPath id="p6855d63fe4">
   <rect x="57.6" y="41.472" width="357.12" height="266.112"/>
  </clipPath>
 </defs>
</svg>
